<mxfile host="app.diagrams.net" modified="2022-03-16T02:29:49.500Z" agent="5.0 (Macintosh; Intel Mac OS X 10_15_7) AppleWebKit/537.36 (KHTML, like Gecko) Chrome/99.0.4844.51 Safari/537.36" etag="Xy07XQ-n12eIleqBVJY7" version="17.1.3" type="github">
  <diagram id="SDIb11jV21BhIwrKZLNN" name="Page-1">
    <mxGraphModel dx="983" dy="643" grid="1" gridSize="10" guides="1" tooltips="1" connect="1" arrows="1" fold="1" page="1" pageScale="1" pageWidth="827" pageHeight="1169" math="0" shadow="0">
      <root>
        <mxCell id="0" />
        <mxCell id="1" parent="0" />
        <mxCell id="jsgCxWwjw-_KWovbcxch-6" value="" style="edgeStyle=orthogonalEdgeStyle;rounded=0;orthogonalLoop=1;jettySize=auto;html=1;" edge="1" parent="1" source="jsgCxWwjw-_KWovbcxch-1" target="jsgCxWwjw-_KWovbcxch-3">
          <mxGeometry relative="1" as="geometry" />
        </mxCell>
        <mxCell id="jsgCxWwjw-_KWovbcxch-1" value="systemd" style="rounded=1;whiteSpace=wrap;html=1;" vertex="1" parent="1">
          <mxGeometry x="40" y="220" width="120" height="60" as="geometry" />
        </mxCell>
        <mxCell id="jsgCxWwjw-_KWovbcxch-8" value="" style="edgeStyle=orthogonalEdgeStyle;rounded=0;orthogonalLoop=1;jettySize=auto;html=1;" edge="1" parent="1" source="jsgCxWwjw-_KWovbcxch-2" target="jsgCxWwjw-_KWovbcxch-7">
          <mxGeometry relative="1" as="geometry" />
        </mxCell>
        <mxCell id="jsgCxWwjw-_KWovbcxch-2" value="" style="rounded=1;whiteSpace=wrap;html=1;" vertex="1" parent="1">
          <mxGeometry x="40" y="360" width="120" height="60" as="geometry" />
        </mxCell>
        <mxCell id="jsgCxWwjw-_KWovbcxch-3" value="&lt;span style=&quot;color: rgb(51 , 51 , 51) ; font-family: &amp;#34;menlo&amp;#34; , &amp;#34;liberation mono&amp;#34; , &amp;#34;consolas&amp;#34; , &amp;#34;dejavu sans mono&amp;#34; , &amp;#34;ubuntu mono&amp;#34; , &amp;#34;courier new&amp;#34; , &amp;#34;andale mono&amp;#34; , &amp;#34;lucida console&amp;#34; , monospace ; background-color: rgb(255 , 255 , 255)&quot;&gt;weidian-base-systemd&lt;/span&gt;" style="rounded=1;whiteSpace=wrap;html=1;" vertex="1" parent="1">
          <mxGeometry x="230" y="220" width="150" height="60" as="geometry" />
        </mxCell>
        <mxCell id="jsgCxWwjw-_KWovbcxch-4" value="jdk8" style="rounded=1;whiteSpace=wrap;html=1;" vertex="1" parent="1">
          <mxGeometry x="430" y="220" width="120" height="60" as="geometry" />
        </mxCell>
        <mxCell id="jsgCxWwjw-_KWovbcxch-5" value="" style="rounded=1;whiteSpace=wrap;html=1;" vertex="1" parent="1">
          <mxGeometry x="670" y="110" width="120" height="60" as="geometry" />
        </mxCell>
        <mxCell id="jsgCxWwjw-_KWovbcxch-7" value="&lt;span style=&quot;color: rgb(51 , 51 , 51) ; font-family: &amp;#34;menlo&amp;#34; , &amp;#34;liberation mono&amp;#34; , &amp;#34;consolas&amp;#34; , &amp;#34;dejavu sans mono&amp;#34; , &amp;#34;ubuntu mono&amp;#34; , &amp;#34;courier new&amp;#34; , &amp;#34;andale mono&amp;#34; , &amp;#34;lucida console&amp;#34; , monospace ; background-color: rgb(255 , 255 , 255)&quot;&gt;weidian-base-centos7 &lt;/span&gt;" style="rounded=1;whiteSpace=wrap;html=1;" vertex="1" parent="1">
          <mxGeometry x="230" y="360" width="155" height="60" as="geometry" />
        </mxCell>
      </root>
    </mxGraphModel>
  </diagram>
</mxfile>
